<svg version="1.1" id="Layer_1" xmlns="http://www.w3.org/2000/svg" xmlns:xlink="http://www.w3.org/1999/xlink" x="0px" y="0px"
	 width="100%" viewBox="0 0 1080 1080" enable-background="new 0 0 1080 1080" xml:space="preserve">
<path fill="#252525" opacity="1.000000" stroke="none" 
	d="
M409.000000,1081.000000 
	C373.645782,1081.000000 338.291534,1081.000000 302.156128,1080.696045 
	C302.372375,1079.888306 303.319916,1079.212402 304.374725,1078.906372 
	C323.901794,1073.242432 338.390167,1053.784302 338.297302,1032.839111 
	C337.939728,952.197021 338.154388,871.552551 338.109711,790.908936 
	C338.107971,787.765259 337.919312,784.567810 337.334442,781.487122 
	C333.492096,761.248291 314.036560,743.614197 290.321350,743.712830 
	C210.178955,744.046143 130.033173,744.078918 49.891319,743.687683 
	C27.027822,743.576050 8.399874,758.987671 2.941231,777.832764 
	C2.698075,778.672119 1.665075,779.282776 0.999989,780.000000 
	C1.000000,744.979126 1.000000,709.958191 1.273100,674.110229 
	C3.581543,677.563354 5.243238,682.074219 7.717748,686.083374 
	C17.769951,702.369873 32.623238,709.695618 51.665577,709.667542 
	C130.320404,709.551392 208.975525,709.620239 287.630524,709.613464 
	C289.295532,709.613342 290.960266,709.508179 292.625580,709.474060 
	C318.638702,708.941162 338.477722,685.703674 338.335083,661.520325 
	C337.861359,581.201660 338.160767,500.878540 338.122803,420.557129 
	C338.121216,417.240875 338.046783,413.860535 337.431305,410.619232 
	C333.743774,391.200592 316.024170,372.105255 287.716583,372.245392 
	C209.063507,372.634735 130.407227,372.362213 51.752285,372.430206 
	C47.282143,372.434082 42.684799,372.604492 38.365242,373.623749 
	C20.965694,377.729431 9.464158,388.578949 3.316029,405.290894 
	C2.931383,406.336456 1.789557,407.103424 1.000000,408.000000 
	C1.000000,372.979095 1.000000,337.958221 1.317796,302.182800 
	C2.047708,302.125000 2.654380,302.772888 2.843461,303.525635 
	C7.435475,321.807251 26.307281,338.472137 50.264793,338.334595 
	C129.901901,337.877380 209.543259,338.173950 289.182953,338.126740 
	C292.989349,338.124481 296.866943,337.971191 300.589813,337.255585 
	C322.409058,333.061432 338.431335,312.117676 338.318817,290.222076 
	C337.906067,209.918045 338.199310,129.610550 338.126068,49.304462 
	C338.105591,26.852367 325.560425,10.081283 304.041260,2.984373 
	C303.230865,2.717101 302.674652,1.678933 302.000000,1.000002 
	C337.354218,1.000000 372.708466,1.000000 408.814117,1.319625 
	C409.183868,1.949716 408.850464,2.397349 408.413635,2.551028 
	C382.946899,11.510362 372.311798,26.497290 372.311462,53.476532 
	C372.310486,130.944946 372.305267,208.413361 372.330353,285.881775 
	C372.331482,289.373901 372.446777,292.882446 372.790710,296.355438 
	C375.071442,319.385773 394.990143,338.022583 418.157501,338.065918 
	C500.123566,338.219238 582.090088,338.123169 664.056458,338.122620 
	C672.276794,338.122589 679.829224,335.730957 686.694580,331.359497 
	C702.681946,321.179565 709.664551,306.438263 709.597290,287.580872 
	C709.385254,228.105865 709.528748,168.629654 709.514099,109.153900 
	C709.509033,88.663017 709.772339,68.164818 709.315552,47.683277 
	C708.832520,26.027248 695.866882,9.560840 675.146912,2.957617 
	C674.308533,2.690432 673.710205,1.669655 673.000000,0.999991 
	C708.354248,1.000000 743.708435,1.000000 779.839172,1.309061 
	C780.099670,2.006102 779.640381,2.564765 779.059570,2.757488 
	C755.479004,10.582635 743.852356,26.479176 743.845337,51.159924 
	C743.822754,130.467010 743.828613,209.774109 743.863892,289.081207 
	C743.865540,292.731720 743.862610,296.456940 744.535156,300.020264 
	C748.667908,321.916931 769.102112,338.384277 791.667908,338.290161 
	C871.640076,337.956757 951.616089,337.879028 1031.587036,338.337860 
	C1054.865479,338.471436 1073.712524,322.896210 1079.047729,304.163940 
	C1079.286621,303.325317 1080.330933,302.716095 1081.000000,302.000000 
	C1081.000000,337.020905 1081.000000,372.041779 1080.727173,407.889893 
	C1078.592407,404.720154 1077.063843,400.523621 1074.811279,396.760529 
	C1064.779541,380.001282 1049.814697,372.300507 1030.330811,372.330719 
	C951.840820,372.452454 873.350525,372.379913 794.860291,372.385040 
	C793.194824,372.385132 791.529602,372.471985 789.863953,372.491364 
	C763.703796,372.795868 743.457581,396.010406 743.629272,420.957245 
	C744.179749,500.943481 743.827820,580.935913 743.864624,660.925903 
	C743.866211,664.408997 743.892517,667.964233 744.545715,671.363159 
	C748.354553,691.182434 766.339417,709.888245 794.258118,709.752808 
	C872.913086,709.371277 951.571167,709.637634 1030.228027,709.569946 
	C1034.698608,709.566101 1039.298706,709.405945 1043.616211,708.381592 
	C1061.002441,704.256775 1072.526855,693.428833 1078.663818,676.703308 
	C1079.047607,675.657288 1080.203369,674.894531 1081.000000,674.000000 
	C1081.000000,709.020874 1081.000000,744.041809 1080.682129,779.817139 
	C1079.952148,779.874695 1079.348022,779.226746 1079.156128,778.473755 
	C1074.486206,760.146484 1055.717163,743.477966 1031.242554,743.640564 
	C951.934082,744.167480 872.619812,743.824890 793.307800,743.872498 
	C789.333984,743.874878 785.287720,744.010437 781.398743,744.741211 
	C759.815186,748.796997 743.509521,769.770142 743.647339,792.264465 
	C744.136108,872.073364 744.152161,951.889099 743.644409,1031.697754 
	C743.494385,1055.277588 759.854065,1074.210327 777.956238,1079.019653 
	C778.756348,1079.232300 779.324036,1080.319946 780.000000,1081.000000 
	C744.645752,1081.000000 709.291565,1081.000000 673.181213,1080.682373 
	C676.804688,1078.458130 681.462036,1077.011597 685.515198,1074.564453 
	C702.033081,1064.591553 709.632019,1049.795776 709.588318,1030.458008 
	C709.416321,954.320374 709.520447,878.182190 709.514465,802.044189 
	C709.514160,798.046814 709.353149,794.047913 709.420288,790.052307 
	C709.823425,766.060425 687.964844,743.511353 661.194153,743.668945 
	C581.060425,744.140808 500.922211,743.828674 420.785767,743.870300 
	C417.308838,743.872070 413.732666,743.907837 410.371429,744.670898 
	C386.926147,749.993286 372.386536,768.279053 372.352814,792.965210 
	C372.244049,872.601685 372.252625,952.238525 372.349152,1031.875122 
	C372.377228,1055.014404 384.882996,1071.781738 406.826416,1079.046753 
	C407.673615,1079.327393 408.280884,1080.332520 409.000000,1081.000000 
M375.112579,678.213928 
	C383.591034,698.810669 399.487579,709.575623 422.094177,709.594177 
	C501.251709,709.659241 580.409363,709.638672 659.566895,709.569397 
	C663.867554,709.565613 668.239441,709.189514 672.455444,708.361938 
	C690.596436,704.801086 709.884399,687.302124 709.698242,658.805420 
	C709.185608,580.317749 709.540710,501.824524 709.475342,423.333557 
	C709.471497,418.697235 709.379761,413.921112 708.320007,409.449127 
	C702.962158,386.838226 684.723450,372.484985 660.707703,372.439758 
	C580.883789,372.289459 501.059143,372.265442 421.235352,372.446289 
	C392.412384,372.511566 372.375427,392.907990 372.342804,421.784363 
	C372.253052,501.275177 372.258026,580.766296 372.424500,660.256836 
	C372.436493,665.986877 374.054474,671.713440 375.112579,678.213928 
z"/>
<path fill="#D8D8D8" opacity="1.000000" stroke="none" 
	d="
M1081.000000,301.531372 
	C1080.330933,302.716095 1079.286621,303.325317 1079.047729,304.163940 
	C1073.712524,322.896210 1054.865479,338.471436 1031.587036,338.337860 
	C951.616089,337.879028 871.640076,337.956757 791.667908,338.290161 
	C769.102112,338.384277 748.667908,321.916931 744.535156,300.020264 
	C743.862610,296.456940 743.865540,292.731720 743.863892,289.081207 
	C743.828613,209.774109 743.822754,130.467010 743.845337,51.159924 
	C743.852356,26.479176 755.479004,10.582635 779.059570,2.757488 
	C779.640381,2.564765 780.099670,2.006102 780.307861,1.309061 
	C867.687561,1.000000 955.375183,1.000000 1043.271851,1.328595 
	C1043.729370,1.872419 1043.944580,2.205434 1044.230957,2.286084 
	C1061.965698,7.281068 1073.741821,18.415070 1079.244141,36.094822 
	C1079.381470,36.535961 1080.395142,36.704376 1081.000000,37.000000 
	C1081.000000,125.020897 1081.000000,213.041794 1081.000000,301.531372 
M1034.997681,167.500000 
	C1034.997681,129.340256 1034.911499,91.180069 1035.104614,53.021297 
	C1035.129272,48.158340 1033.717773,46.893761 1028.930420,46.902466 
	C951.111328,47.043953 873.291870,47.052525 795.472961,46.888054 
	C790.402100,46.877338 789.433533,48.616516 789.440369,53.207726 
	C789.556274,130.860214 789.571289,208.513000 789.413818,286.165344 
	C789.403442,291.277130 790.880676,292.591797 795.900513,292.582031 
	C873.552917,292.431152 951.205688,292.440704 1028.858154,292.565613 
	C1033.536133,292.573120 1035.136597,291.451294 1035.110840,286.478119 
	C1034.906982,247.152939 1034.997559,207.826233 1034.997681,167.500000 
z"/>
<path fill="#D8D8D8" opacity="1.000000" stroke="none" 
	d="
M780.468628,1081.000000 
	C779.324036,1080.319946 778.756348,1079.232300 777.956238,1079.019653 
	C759.854065,1074.210327 743.494385,1055.277588 743.644409,1031.697754 
	C744.152161,951.889099 744.136108,872.073364 743.647339,792.264465 
	C743.509521,769.770142 759.815186,748.796997 781.398743,744.741211 
	C785.287720,744.010437 789.333984,743.874878 793.307800,743.872498 
	C872.619812,743.824890 951.934082,744.167480 1031.242554,743.640564 
	C1055.717163,743.477966 1074.486206,760.146484 1079.156128,778.473755 
	C1079.348022,779.226746 1079.952148,779.874695 1080.682129,780.285767 
	C1081.000000,868.020935 1081.000000,956.041809 1080.714355,1044.196777 
	C1080.020996,1044.817993 1079.409424,1045.241821 1079.235229,1045.801880 
	C1073.883057,1063.007324 1062.721680,1074.287109 1045.317627,1079.299805 
	C1044.761353,1079.459961 1044.434082,1080.415405 1044.000000,1081.000000 
	C956.312439,1081.000000 868.624878,1081.000000 780.468628,1081.000000 
M1029.379395,789.523315 
	C951.891052,789.523315 874.402649,789.522949 796.914307,789.523804 
	C789.528381,789.523926 789.523987,789.527710 789.523865,796.820496 
	C789.522766,873.808899 789.523132,950.797241 789.523315,1027.785645 
	C789.523315,1028.785522 789.592773,1029.790649 789.514954,1030.784302 
	C789.258728,1034.054810 790.763245,1035.052124 793.966431,1035.049438 
	C872.787842,1034.982544 951.609314,1034.979980 1030.430786,1035.054443 
	C1033.889404,1035.057739 1035.137573,1034.004761 1035.061646,1030.477173 
	C1034.868164,1021.482666 1034.997559,1012.481262 1034.997559,1003.482605 
	C1034.997681,934.159729 1034.987427,864.836792 1035.028198,795.513916 
	C1035.030151,792.128906 1035.278320,788.899414 1029.379395,789.523315 
z"/>
<path fill="#D8D8D8" opacity="1.000000" stroke="none" 
	d="
M0.999989,780.468628 
	C1.665075,779.282776 2.698075,778.672119 2.941231,777.832764 
	C8.399874,758.987671 27.027822,743.576050 49.891319,743.687683 
	C130.033173,744.078918 210.178955,744.046143 290.321350,743.712830 
	C314.036560,743.614197 333.492096,761.248291 337.334442,781.487122 
	C337.919312,784.567810 338.107971,787.765259 338.109711,790.908936 
	C338.154388,871.552551 337.939728,952.197021 338.297302,1032.839111 
	C338.390167,1053.784302 323.901794,1073.242432 304.374725,1078.906372 
	C303.319916,1079.212402 302.372375,1079.888306 301.687439,1080.696045 
	C214.312439,1081.000000 126.624878,1081.000000 38.728157,1080.671509 
	C38.123138,1080.053223 37.767895,1079.618408 37.325596,1079.494385 
	C19.708881,1074.561768 8.206560,1063.372925 2.756237,1045.905029 
	C2.618488,1045.463623 1.605048,1045.295532 1.000008,1045.000000 
	C1.000000,956.979126 1.000000,868.958191 0.999989,780.468628 
M47.002640,826.500000 
	C47.002647,893.987854 47.051720,961.475769 46.899426,1028.963257 
	C46.888515,1033.797241 48.235725,1035.108276 53.049835,1035.099365 
	C130.868881,1034.955566 208.688385,1034.948486 286.507355,1035.110840 
	C291.551819,1035.121460 292.558533,1033.423096 292.551483,1028.809570 
	C292.432800,951.157043 292.419159,873.504150 292.575439,795.851807 
	C292.585693,790.767944 291.167786,789.377319 286.114899,789.411743 
	C253.955521,789.630981 221.793900,789.523254 189.633026,789.523254 
	C143.974579,789.523315 98.316025,789.567688 52.657887,789.449280 
	C48.450275,789.438416 46.748604,790.429993 46.898880,795.008911 
	C47.232128,805.162842 47.002659,815.335144 47.002640,826.500000 
z"/>
<path fill="#D8D8D8" opacity="1.000000" stroke="none" 
	d="
M301.531342,1.000002 
	C302.674652,1.678933 303.230865,2.717101 304.041260,2.984373 
	C325.560425,10.081283 338.105591,26.852367 338.126068,49.304462 
	C338.199310,129.610550 337.906067,209.918045 338.318817,290.222076 
	C338.431335,312.117676 322.409058,333.061432 300.589813,337.255585 
	C296.866943,337.971191 292.989349,338.124481 289.182953,338.126740 
	C209.543259,338.173950 129.901901,337.877380 50.264793,338.334595 
	C26.307281,338.472137 7.435475,321.807251 2.843461,303.525635 
	C2.654380,302.772888 2.047708,302.125000 1.317796,301.714111 
	C1.000000,213.979111 1.000000,125.958214 1.285949,37.803219 
	C2.020763,37.020119 2.660212,36.432167 2.890545,35.713158 
	C8.264628,18.937452 19.226274,7.869188 36.199757,2.832900 
	C36.917896,2.619816 37.405174,1.628676 38.000000,1.000001 
	C125.687561,1.000000 213.375122,1.000000 301.531342,1.000002 
M55.603027,47.002640 
	C45.958775,47.082054 47.014404,45.932274 47.012272,55.486465 
	C46.995087,132.474655 47.048683,209.462952 46.894951,286.450836 
	C46.885124,291.374084 48.390369,292.575897 53.111248,292.568054 
	C130.765793,292.439392 208.420715,292.431885 286.075165,292.580780 
	C291.066040,292.590332 292.588684,291.330780 292.578033,286.188141 
	C292.417389,208.533737 292.417816,130.878754 292.576630,53.224331 
	C292.587189,48.055019 291.011841,46.883595 286.040924,46.893745 
	C209.552963,47.049915 133.064590,47.002644 55.603027,47.002640 
z"/>
<path fill="#D8D8D8" opacity="1.000000" stroke="none" 
	d="
M409.468658,1081.000000 
	C408.280884,1080.332520 407.673615,1079.327393 406.826416,1079.046753 
	C384.882996,1071.781738 372.377228,1055.014404 372.349152,1031.875122 
	C372.252625,952.238525 372.244049,872.601685 372.352814,792.965210 
	C372.386536,768.279053 386.926147,749.993286 410.371429,744.670898 
	C413.732666,743.907837 417.308838,743.872070 420.785767,743.870300 
	C500.922211,743.828674 581.060425,744.140808 661.194153,743.668945 
	C687.964844,743.511353 709.823425,766.060425 709.420288,790.052307 
	C709.353149,794.047913 709.514160,798.046814 709.514465,802.044189 
	C709.520447,878.182190 709.416321,954.320374 709.588318,1030.458008 
	C709.632019,1049.795776 702.033081,1064.591553 685.515198,1074.564453 
	C681.462036,1077.011597 676.804688,1078.458130 672.712524,1080.682373 
	C585.312439,1081.000000 497.624878,1081.000000 409.468658,1081.000000 
M588.500000,1034.997681 
	C611.664917,1034.997681 634.831238,1034.864868 657.993591,1035.107300 
	C662.746155,1035.156982 663.884583,1033.609131 663.877991,1029.108887 
	C663.763916,951.281616 663.755310,873.453979 663.892883,795.626770 
	C663.901428,790.770874 662.448425,789.421936 657.653809,789.430176 
	C579.826599,789.562439 501.998993,789.564636 424.171783,789.426880 
	C419.265808,789.418213 418.035187,790.989197 418.043121,795.718628 
	C418.173523,873.379211 418.182953,951.040222 418.028015,1028.700684 
	C418.017853,1033.801025 419.470703,1035.125488 424.512634,1035.108765 
	C478.841309,1034.930420 533.170776,1034.997681 588.500000,1034.997681 
z"/>
<path fill="#D8D8D8" opacity="1.000000" stroke="none" 
	d="
M1081.000000,673.531372 
	C1080.203369,674.894531 1079.047607,675.657288 1078.663818,676.703308 
	C1072.526855,693.428833 1061.002441,704.256775 1043.616211,708.381592 
	C1039.298706,709.405945 1034.698608,709.566101 1030.228027,709.569946 
	C951.571167,709.637634 872.913086,709.371277 794.258118,709.752808 
	C766.339417,709.888245 748.354553,691.182434 744.545715,671.363159 
	C743.892517,667.964233 743.866211,664.408997 743.864624,660.925903 
	C743.827820,580.935913 744.179749,500.943481 743.629272,420.957245 
	C743.457581,396.010406 763.703796,372.795868 789.863953,372.491364 
	C791.529602,372.471985 793.194824,372.385132 794.860291,372.385040 
	C873.350525,372.379913 951.840820,372.452454 1030.330811,372.330719 
	C1049.814697,372.300507 1064.779541,380.001282 1074.811279,396.760529 
	C1077.063843,400.523621 1078.592407,404.720154 1080.727173,408.358582 
	C1081.000000,496.354218 1081.000000,584.708435 1081.000000,673.531372 
M796.669495,663.833862 
	C874.001038,663.833862 951.332581,663.788452 1028.663818,663.938171 
	C1033.706787,663.947937 1035.121704,662.582703 1035.111206,657.488770 
	C1034.950317,579.657715 1034.958862,501.826050 1035.099731,423.994843 
	C1035.108154,419.310852 1033.717407,418.071716 1029.151978,418.078857 
	C951.320679,418.200562 873.489136,418.205536 795.657898,418.070984 
	C790.843628,418.062653 789.416931,419.440979 789.425293,424.279205 
	C789.560425,502.110443 789.561951,579.942017 789.422974,657.773254 
	C789.414185,662.678833 790.971985,664.545532 796.669495,663.833862 
z"/>
<path fill="#D8D8D8" opacity="1.000000" stroke="none" 
	d="
M1.000000,408.468658 
	C1.789557,407.103424 2.931383,406.336456 3.316029,405.290894 
	C9.464158,388.578949 20.965694,377.729431 38.365242,373.623749 
	C42.684799,372.604492 47.282143,372.434082 51.752285,372.430206 
	C130.407227,372.362213 209.063507,372.634735 287.716583,372.245392 
	C316.024170,372.105255 333.743774,391.200592 337.431305,410.619232 
	C338.046783,413.860535 338.121216,417.240875 338.122803,420.557129 
	C338.160767,500.878540 337.861359,581.201660 338.335083,661.520325 
	C338.477722,685.703674 318.638702,708.941162 292.625580,709.474060 
	C290.960266,709.508179 289.295532,709.613342 287.630524,709.613464 
	C208.975525,709.620239 130.320404,709.551392 51.665577,709.667542 
	C32.623238,709.695618 17.769951,702.369873 7.717748,686.083374 
	C5.243238,682.074219 3.581543,677.563354 1.273100,673.641602 
	C1.000000,585.645752 1.000000,497.291534 1.000000,408.468658 
M47.002060,641.499878 
	C47.002068,646.999451 47.301861,652.520447 46.910805,657.992065 
	C46.575134,662.688721 48.251682,663.928650 52.835728,663.921326 
	C130.663406,663.797180 208.491394,663.793396 286.319061,663.927002 
	C291.114044,663.935242 292.571106,662.587524 292.562653,657.736938 
	C292.427124,579.909302 292.426880,502.081299 292.563110,424.253662 
	C292.571625,419.391022 291.091125,418.065521 286.309692,418.073700 
	C208.648682,418.206329 130.987305,418.213348 53.326378,418.062286 
	C48.271851,418.052429 46.878067,419.430359 46.889721,424.515381 
	C47.054768,496.509979 47.002064,568.505066 47.002060,641.499878 
z"/>
<path fill="#D8D8D8" opacity="1.000000" stroke="none" 
	d="
M672.531372,0.999991 
	C673.710205,1.669655 674.308533,2.690432 675.146912,2.957617 
	C695.866882,9.560840 708.832520,26.027248 709.315552,47.683277 
	C709.772339,68.164818 709.509033,88.663017 709.514099,109.153900 
	C709.528748,168.629654 709.385254,228.105865 709.597290,287.580872 
	C709.664551,306.438263 702.681946,321.179565 686.694580,331.359497 
	C679.829224,335.730957 672.276794,338.122589 664.056458,338.122620 
	C582.090088,338.123169 500.123566,338.219238 418.157501,338.065918 
	C394.990143,338.022583 375.071442,319.385773 372.790710,296.355438 
	C372.446777,292.882446 372.331482,289.373901 372.330353,285.881775 
	C372.305267,208.413361 372.310486,130.944946 372.311462,53.476532 
	C372.311798,26.497290 382.946899,11.510362 408.413635,2.551028 
	C408.850464,2.397349 409.183868,1.949716 409.282776,1.319625 
	C496.687561,1.000000 584.375122,1.000000 672.531372,0.999991 
M653.454224,292.476868 
	C654.120911,292.476837 654.787537,292.476959 655.454224,292.476715 
	C663.795410,292.473694 663.795837,292.473694 663.795898,284.073364 
	C663.795959,207.244736 663.796753,130.416122 663.794373,53.587494 
	C663.794128,47.008217 663.783997,47.003391 657.191223,47.003292 
	C579.695984,47.002148 502.200745,47.002090 424.705505,47.003387 
	C418.145020,47.003498 418.137115,47.008957 418.136963,53.606049 
	C418.135071,130.767990 418.135559,207.929916 418.136078,285.091858 
	C418.136108,292.470917 418.138123,292.475800 425.481873,292.475922 
	C501.143890,292.477264 576.805908,292.476929 653.454224,292.476868 
z"/>
<path fill="#252525" opacity="1.000000" stroke="none" 
	d="
M1044.468628,1081.000000 
	C1044.434082,1080.415405 1044.761353,1079.459961 1045.317627,1079.299805 
	C1062.721680,1074.287109 1073.883057,1063.007324 1079.235229,1045.801880 
	C1079.409424,1045.241821 1080.020996,1044.817993 1080.714355,1044.665283 
	C1081.000000,1056.927612 1081.000000,1068.855225 1081.000000,1081.000000 
	C1068.979980,1081.000000 1056.958618,1081.000000 1044.468628,1081.000000 
z"/>
<path fill="#252525" opacity="1.000000" stroke="none" 
	d="
M1.000008,1045.468628 
	C1.605048,1045.295532 2.618488,1045.463623 2.756237,1045.905029 
	C8.206560,1063.372925 19.708881,1074.561768 37.325596,1079.494385 
	C37.767895,1079.618408 38.123138,1080.053223 38.259499,1080.671509 
	C25.741051,1081.000000 13.482100,1081.000000 1.000000,1081.000000 
	C1.000000,1069.313354 1.000000,1057.625366 1.000008,1045.468628 
z"/>
<path fill="#252525" opacity="1.000000" stroke="none" 
	d="
M1081.000000,36.531342 
	C1080.395142,36.704376 1079.381470,36.535961 1079.244141,36.094822 
	C1073.741821,18.415070 1061.965698,7.281068 1044.230957,2.286084 
	C1043.944580,2.205434 1043.729370,1.872419 1043.740479,1.328595 
	C1056.258911,1.000000 1068.517944,1.000000 1081.000000,1.000000 
	C1081.000000,12.686615 1081.000000,24.374649 1081.000000,36.531342 
z"/>
<path fill="#252525" opacity="1.000000" stroke="none" 
	d="
M37.531342,1.000001 
	C37.405174,1.628676 36.917896,2.619816 36.199757,2.832900 
	C19.226274,7.869188 8.264628,18.937452 2.890545,35.713158 
	C2.660212,36.432167 2.020763,37.020119 1.285949,37.334560 
	C1.000000,25.072384 1.000000,13.144766 1.000000,1.000000 
	C13.020023,1.000000 25.041353,1.000000 37.531342,1.000001 
z"/>
<path fill="#D7D7D7" opacity="1.000000" stroke="none" 
	d="
M375.019165,677.827759 
	C374.054474,671.713440 372.436493,665.986877 372.424500,660.256836 
	C372.258026,580.766296 372.253052,501.275177 372.342804,421.784363 
	C372.375427,392.907990 392.412384,372.511566 421.235352,372.446289 
	C501.059143,372.265442 580.883789,372.289459 660.707703,372.439758 
	C684.723450,372.484985 702.962158,386.838226 708.320007,409.449127 
	C709.379761,413.921112 709.471497,418.697235 709.475342,423.333557 
	C709.540710,501.824524 709.185608,580.317749 709.698242,658.805420 
	C709.884399,687.302124 690.596436,704.801086 672.455444,708.361938 
	C668.239441,709.189514 663.867554,709.565613 659.566895,709.569397 
	C580.409363,709.638672 501.251709,709.659241 422.094177,709.594177 
	C399.487579,709.575623 383.591034,698.810669 375.019165,677.827759 
M576.500000,418.165924 
	C525.690186,418.165985 474.880280,418.216675 424.070862,418.079346 
	C419.528625,418.067078 418.033386,419.300507 418.041199,423.995636 
	C418.171326,501.959412 418.167908,579.923523 418.046936,657.887329 
	C418.039886,662.432495 419.258026,663.933228 423.953705,663.925476 
	C501.917480,663.796753 579.881592,663.800293 657.845398,663.919067 
	C662.385742,663.926025 663.896606,662.698669 663.888916,658.004517 
	C663.761230,580.040710 663.764465,502.076599 663.883240,424.112793 
	C663.890137,419.567780 662.652466,418.036682 657.962158,418.071045 
	C631.142639,418.267273 604.320923,418.166107 576.500000,418.165924 
z"/>
<path fill="#242424" opacity="1.000000" stroke="none" 
	d="
M1034.997681,168.000000 
	C1034.997559,207.826233 1034.906982,247.152939 1035.110840,286.478119 
	C1035.136597,291.451294 1033.536133,292.573120 1028.858154,292.565613 
	C951.205688,292.440704 873.552917,292.431152 795.900513,292.582031 
	C790.880676,292.591797 789.403442,291.277130 789.413818,286.165344 
	C789.571289,208.513000 789.556274,130.860214 789.440369,53.207726 
	C789.433533,48.616516 790.402100,46.877338 795.472961,46.888054 
	C873.291870,47.052525 951.111328,47.043953 1028.930420,46.902466 
	C1033.717773,46.893761 1035.129272,48.158340 1035.104614,53.021297 
	C1034.911499,91.180069 1034.997681,129.340256 1034.997681,168.000000 
z"/>
<path fill="#242424" opacity="1.000000" stroke="none" 
	d="
M1029.864990,789.523682 
	C1035.278320,788.899414 1035.030151,792.128906 1035.028198,795.513916 
	C1034.987427,864.836792 1034.997681,934.159729 1034.997559,1003.482605 
	C1034.997559,1012.481262 1034.868164,1021.482666 1035.061646,1030.477173 
	C1035.137573,1034.004761 1033.889404,1035.057739 1030.430786,1035.054443 
	C951.609314,1034.979980 872.787842,1034.982544 793.966431,1035.049438 
	C790.763245,1035.052124 789.258728,1034.054810 789.514954,1030.784302 
	C789.592773,1029.790649 789.523315,1028.785522 789.523315,1027.785645 
	C789.523132,950.797241 789.522766,873.808899 789.523865,796.820496 
	C789.523987,789.527710 789.528381,789.523926 796.914307,789.523804 
	C874.402649,789.522949 951.891052,789.523315 1029.864990,789.523682 
z"/>
<path fill="#242424" opacity="1.000000" stroke="none" 
	d="
M47.002640,826.000000 
	C47.002659,815.335144 47.232128,805.162842 46.898880,795.008911 
	C46.748604,790.429993 48.450275,789.438416 52.657887,789.449280 
	C98.316025,789.567688 143.974579,789.523315 189.633026,789.523254 
	C221.793900,789.523254 253.955521,789.630981 286.114899,789.411743 
	C291.167786,789.377319 292.585693,790.767944 292.575439,795.851807 
	C292.419159,873.504150 292.432800,951.157043 292.551483,1028.809570 
	C292.558533,1033.423096 291.551819,1035.121460 286.507355,1035.110840 
	C208.688385,1034.948486 130.868881,1034.955566 53.049835,1035.099365 
	C48.235725,1035.108276 46.888515,1033.797241 46.899426,1028.963257 
	C47.051720,961.475769 47.002647,893.987854 47.002640,826.000000 
z"/>
<path fill="#242424" opacity="1.000000" stroke="none" 
	d="
M56.089676,47.002640 
	C133.064590,47.002644 209.552963,47.049915 286.040924,46.893745 
	C291.011841,46.883595 292.587189,48.055019 292.576630,53.224331 
	C292.417816,130.878754 292.417389,208.533737 292.578033,286.188141 
	C292.588684,291.330780 291.066040,292.590332 286.075165,292.580780 
	C208.420715,292.431885 130.765793,292.439392 53.111248,292.568054 
	C48.390369,292.575897 46.885124,291.374084 46.894951,286.450836 
	C47.048683,209.462952 46.995087,132.474655 47.012272,55.486465 
	C47.014404,45.932274 45.958775,47.082054 56.089676,47.002640 
z"/>
<path fill="#242424" opacity="1.000000" stroke="none" 
	d="
M588.000000,1034.997681 
	C533.170776,1034.997681 478.841309,1034.930420 424.512634,1035.108765 
	C419.470703,1035.125488 418.017853,1033.801025 418.028015,1028.700684 
	C418.182953,951.040222 418.173523,873.379211 418.043121,795.718628 
	C418.035187,790.989197 419.265808,789.418213 424.171783,789.426880 
	C501.998993,789.564636 579.826599,789.562439 657.653809,789.430176 
	C662.448425,789.421936 663.901428,790.770874 663.892883,795.626770 
	C663.755310,873.453979 663.763916,951.281616 663.877991,1029.108887 
	C663.884583,1033.609131 662.746155,1035.156982 657.993591,1035.107300 
	C634.831238,1034.864868 611.664917,1034.997681 588.000000,1034.997681 
z"/>
<path fill="#252525" opacity="1.000000" stroke="none" 
	d="
M796.189758,663.833862 
	C790.971985,664.545532 789.414185,662.678833 789.422974,657.773254 
	C789.561951,579.942017 789.560425,502.110443 789.425293,424.279205 
	C789.416931,419.440979 790.843628,418.062653 795.657898,418.070984 
	C873.489136,418.205536 951.320679,418.200562 1029.151978,418.078857 
	C1033.717407,418.071716 1035.108154,419.310852 1035.099731,423.994843 
	C1034.958862,501.826050 1034.950317,579.657715 1035.111206,657.488770 
	C1035.121704,662.582703 1033.706787,663.947937 1028.663818,663.938171 
	C951.332581,663.788452 874.001038,663.833862 796.189758,663.833862 
M960.599976,526.062256 
	C977.324585,503.450165 967.953064,472.249939 941.270996,463.222961 
	C923.447876,457.193085 905.199951,457.044189 887.268921,463.078278 
	C874.520996,467.368134 864.177795,475.218933 856.147095,486.177551 
	C861.281799,492.161713 866.148376,497.860291 871.045654,503.532471 
	C875.022156,508.138214 875.278809,508.067902 878.980896,503.074097 
	C888.869751,489.735229 902.226501,484.656464 918.419922,487.172699 
	C925.522400,488.276337 931.519592,491.811859 933.838928,499.052460 
	C937.738586,511.226410 934.576477,526.401306 916.395020,529.199768 
	C913.121704,529.703552 909.767212,529.796509 906.446411,529.850342 
	C900.329407,529.949463 894.209656,529.878662 888.065247,529.878662 
	C888.065247,538.928528 888.065247,547.471741 888.065247,556.248047 
	C893.895935,556.248047 899.379700,556.156555 904.859070,556.273682 
	C910.349121,556.390991 915.878845,556.356628 921.313293,557.023743 
	C933.760193,558.551636 941.142395,566.839539 941.855347,579.506958 
	C942.618652,593.067566 936.437073,602.669495 923.909546,604.988159 
	C917.046387,606.258423 909.684753,605.825562 902.673340,605.040710 
	C894.814331,604.160950 888.903076,599.353394 884.894043,592.578674 
	C882.877136,589.170227 881.224243,585.502625 879.801819,581.800354 
	C878.703491,578.941650 877.132324,578.242432 874.492493,579.472778 
	C866.537842,583.180359 858.588135,586.898682 850.421265,590.713318 
	C854.325073,609.501343 864.544128,622.794312 882.108459,629.875549 
	C897.984680,636.276306 914.576233,636.792114 931.262817,634.111511 
	C955.768860,630.174805 971.364075,615.774902 974.977478,594.472290 
	C978.772949,572.096497 972.412292,549.976685 948.184631,541.158264 
	C944.962463,539.985413 946.107300,538.586975 948.057251,536.981201 
	C952.153625,533.607910 956.117615,530.073975 960.599976,526.062256 
z"/>
<path fill="#252525" opacity="1.000000" stroke="none" 
	d="
M47.002060,640.999939 
	C47.002064,568.505066 47.054768,496.509979 46.889721,424.515381 
	C46.878067,419.430359 48.271851,418.052429 53.326378,418.062286 
	C130.987305,418.213348 208.648682,418.206329 286.309692,418.073700 
	C291.091125,418.065521 292.571625,419.391022 292.563110,424.253662 
	C292.426880,502.081299 292.427124,579.909302 292.562653,657.736938 
	C292.571106,662.587524 291.114044,663.935242 286.319061,663.927002 
	C208.491394,663.793396 130.663406,663.797180 52.835728,663.921326 
	C48.251682,663.928650 46.575134,662.688721 46.910805,657.992065 
	C47.301861,652.520447 47.002068,646.999451 47.002060,640.999939 
M190.630051,464.027954 
	C189.433029,463.125610 188.262451,461.486725 187.034622,461.442627 
	C180.043747,461.191681 173.037277,461.233856 166.040833,461.388947 
	C164.485962,461.423431 162.909546,462.212433 161.411804,462.822723 
	C150.518433,467.261658 139.686310,471.855042 128.736649,476.149353 
	C125.112312,477.570770 121.199623,478.256989 117.679657,479.208832 
	C117.679657,489.076080 117.679657,498.364288 117.679657,509.149353 
	C131.040009,505.303314 143.780182,501.635773 156.679169,497.922516 
	C156.679169,533.800354 156.679169,569.211731 156.679169,605.125732 
	C142.854965,605.125732 129.298752,605.125732 115.800667,605.125732 
	C115.800667,614.691772 115.800667,623.749268 115.800667,632.830688 
	C153.132950,632.830688 190.096771,632.830688 227.325470,632.830688 
	C227.325470,623.573975 227.325470,614.490784 227.325470,604.899536 
	C215.049942,604.899536 202.969208,604.899536 190.633606,604.899536 
	C190.633606,557.909363 190.633606,511.425781 190.630051,464.027954 
z"/>
<path fill="#242424" opacity="1.000000" stroke="none" 
	d="
M652.961060,292.476959 
	C576.805908,292.476929 501.143890,292.477264 425.481873,292.475922 
	C418.138123,292.475800 418.136108,292.470917 418.136078,285.091858 
	C418.135559,207.929916 418.135071,130.767990 418.136963,53.606049 
	C418.137115,47.008957 418.145020,47.003498 424.705505,47.003387 
	C502.200745,47.002090 579.695984,47.002148 657.191223,47.003292 
	C663.783997,47.003391 663.794128,47.008217 663.794373,53.587494 
	C663.796753,130.416122 663.795959,207.244736 663.795898,284.073364 
	C663.795837,292.473694 663.795410,292.473694 655.454224,292.476715 
	C654.787537,292.476959 654.120911,292.476837 652.961060,292.476959 
z"/>
<path fill="#252525" opacity="1.000000" stroke="none" 
	d="
M577.000000,418.165955 
	C604.320923,418.166107 631.142639,418.267273 657.962158,418.071045 
	C662.652466,418.036682 663.890137,419.567780 663.883240,424.112793 
	C663.764465,502.076599 663.761230,580.040710 663.888916,658.004517 
	C663.896606,662.698669 662.385742,663.926025 657.845398,663.919067 
	C579.881592,663.800293 501.917480,663.796753 423.953705,663.925476 
	C419.258026,663.933228 418.039886,662.432495 418.046936,657.887329 
	C418.167908,579.923523 418.171326,501.959412 418.041199,423.995636 
	C418.033386,419.300507 419.528625,418.067078 424.070862,418.079346 
	C474.880280,418.216675 525.690186,418.165985 577.000000,418.165955 
M536.591797,459.023529 
	C512.641785,459.504669 493.745758,469.414703 479.804077,489.135162 
	C485.239166,495.222656 490.645020,500.893341 495.580872,506.947205 
	C498.628693,510.685303 500.272491,510.226593 502.910706,506.497528 
	C512.541077,492.885193 525.812256,486.733582 542.516113,487.962830 
	C556.472351,488.989899 563.946655,497.398773 563.351257,511.303131 
	C563.009460,519.285156 559.744873,525.918213 553.968872,531.044617 
	C547.632507,536.668396 540.773743,541.710693 534.065308,546.906616 
	C522.619446,555.771912 510.618286,563.993591 499.743683,573.506775 
	C481.554535,589.418762 481.468384,611.027832 482.452515,632.755310 
	C520.361267,632.755310 557.804321,632.755310 595.294250,632.755310 
	C595.294250,623.308716 595.294250,614.113037 595.294250,604.514526 
	C569.452087,604.514526 544.008484,604.514526 518.369080,604.514526 
	C518.213867,598.804016 520.154663,594.252075 523.847290,590.707092 
	C527.795288,586.916870 532.053650,583.398743 536.462952,580.150635 
	C546.381775,572.843872 556.936890,566.326599 566.361816,558.446167 
	C574.464233,551.671509 582.641968,544.331970 588.553040,535.710876 
	C608.435669,506.713287 594.442871,469.779266 560.822388,461.488159 
	C553.321106,459.638275 545.327148,459.785919 536.591797,459.023529 
z"/>
<path fill="#FDFDFD" opacity="1.000000" stroke="none" 
	d="
M960.367920,526.334106 
	C956.117615,530.073975 952.153625,533.607910 948.057251,536.981201 
	C946.107300,538.586975 944.962463,539.985413 948.184631,541.158264 
	C972.412292,549.976685 978.772949,572.096497 974.977478,594.472290 
	C971.364075,615.774902 955.768860,630.174805 931.262817,634.111511 
	C914.576233,636.792114 897.984680,636.276306 882.108459,629.875549 
	C864.544128,622.794312 854.325073,609.501343 850.421265,590.713318 
	C858.588135,586.898682 866.537842,583.180359 874.492493,579.472778 
	C877.132324,578.242432 878.703491,578.941650 879.801819,581.800354 
	C881.224243,585.502625 882.877136,589.170227 884.894043,592.578674 
	C888.903076,599.353394 894.814331,604.160950 902.673340,605.040710 
	C909.684753,605.825562 917.046387,606.258423 923.909546,604.988159 
	C936.437073,602.669495 942.618652,593.067566 941.855347,579.506958 
	C941.142395,566.839539 933.760193,558.551636 921.313293,557.023743 
	C915.878845,556.356628 910.349121,556.390991 904.859070,556.273682 
	C899.379700,556.156555 893.895935,556.248047 888.065247,556.248047 
	C888.065247,547.471741 888.065247,538.928528 888.065247,529.878662 
	C894.209656,529.878662 900.329407,529.949463 906.446411,529.850342 
	C909.767212,529.796509 913.121704,529.703552 916.395020,529.199768 
	C934.576477,526.401306 937.738586,511.226410 933.838928,499.052460 
	C931.519592,491.811859 925.522400,488.276337 918.419922,487.172699 
	C902.226501,484.656464 888.869751,489.735229 878.980896,503.074097 
	C875.278809,508.067902 875.022156,508.138214 871.045654,503.532471 
	C866.148376,497.860291 861.281799,492.161713 856.147095,486.177551 
	C864.177795,475.218933 874.520996,467.368134 887.268921,463.078278 
	C905.199951,457.044189 923.447876,457.193085 941.270996,463.222961 
	C967.953064,472.249939 977.324585,503.450165 960.367920,526.334106 
z"/>
<path fill="#FCFCFC" opacity="1.000000" stroke="none" 
	d="
M190.631836,464.485077 
	C190.633606,511.425781 190.633606,557.909363 190.633606,604.899536 
	C202.969208,604.899536 215.049942,604.899536 227.325470,604.899536 
	C227.325470,614.490784 227.325470,623.573975 227.325470,632.830688 
	C190.096771,632.830688 153.132950,632.830688 115.800667,632.830688 
	C115.800667,623.749268 115.800667,614.691772 115.800667,605.125732 
	C129.298752,605.125732 142.854965,605.125732 156.679169,605.125732 
	C156.679169,569.211731 156.679169,533.800354 156.679169,497.922516 
	C143.780182,501.635773 131.040009,505.303314 117.679657,509.149353 
	C117.679657,498.364288 117.679657,489.076080 117.679657,479.208832 
	C121.199623,478.256989 125.112312,477.570770 128.736649,476.149353 
	C139.686310,471.855042 150.518433,467.261658 161.411804,462.822723 
	C162.909546,462.212433 164.485962,461.423431 166.040833,461.388947 
	C173.037277,461.233856 180.043747,461.191681 187.034622,461.442627 
	C188.262451,461.486725 189.433029,463.125610 190.631836,464.485077 
z"/>
<path fill="#FDFDFD" opacity="1.000000" stroke="none" 
	d="
M537.075928,459.018707 
	C545.327148,459.785919 553.321106,459.638275 560.822388,461.488159 
	C594.442871,469.779266 608.435669,506.713287 588.553040,535.710876 
	C582.641968,544.331970 574.464233,551.671509 566.361816,558.446167 
	C556.936890,566.326599 546.381775,572.843872 536.462952,580.150635 
	C532.053650,583.398743 527.795288,586.916870 523.847290,590.707092 
	C520.154663,594.252075 518.213867,598.804016 518.369080,604.514526 
	C544.008484,604.514526 569.452087,604.514526 595.294250,604.514526 
	C595.294250,614.113037 595.294250,623.308716 595.294250,632.755310 
	C557.804321,632.755310 520.361267,632.755310 482.452515,632.755310 
	C481.468384,611.027832 481.554535,589.418762 499.743683,573.506775 
	C510.618286,563.993591 522.619446,555.771912 534.065308,546.906616 
	C540.773743,541.710693 547.632507,536.668396 553.968872,531.044617 
	C559.744873,525.918213 563.009460,519.285156 563.351257,511.303131 
	C563.946655,497.398773 556.472351,488.989899 542.516113,487.962830 
	C525.812256,486.733582 512.541077,492.885193 502.910706,506.497528 
	C500.272491,510.226593 498.628693,510.685303 495.580872,506.947205 
	C490.645020,500.893341 485.239166,495.222656 479.804077,489.135162 
	C493.745758,469.414703 512.641785,459.504669 537.075928,459.018707 
z"/>
</svg>